<svg height="512pt" viewBox="0 -36 512 512" width="512pt" xmlns="http://www.w3.org/2000/svg"><path d="m124.878906 197.085938c0 34.484374-27.957031 62.4375-62.441406 62.4375s-62.4375-27.953126-62.4375-62.4375c0-28.105469 41.46875-116.839844 56.816406-148.714844 2.269532-4.714844 8.976563-4.714844 11.246094 0 15.347656 31.875 56.816406 120.609375 56.816406 148.714844zm0 0" fill="#6ec030"/><path d="m56.816406 48.367188c-1.023437 2.128906-2.164062 4.511718-3.402344 7.113281 18.46875 39.578125 47.527344 105.589843 47.527344 129.117187 0 34.484375-27.953125 62.4375-62.4375 62.4375-5.605468 0-11.035156-.75-16.207031-2.136718 10.855469 9.125 24.851563 14.625 40.140625 14.625 34.484375 0 62.4375-27.953126 62.4375-62.4375 0-28.105469-41.46875-116.835938-56.816406-148.714844-2.265625-4.714844-8.972656-4.71875-11.242188-.003906zm0 0" fill="#378900"/><path d="m265.367188 124.238281c0 28.363281-23.671876 50.992188-52.035157 50.992188-28.359375 0-52.03125-22.628907-52.03125-50.992188 0-22.574219 32.960938-92.933593 46.414063-120.714843 2.277344-4.699219 8.960937-4.699219 11.234375 0 13.453125 27.78125 46.417969 98.140624 46.417969 120.714843zm0 0" fill="#6ec030"/><path d="m207.714844 3.523438c-.878906 1.816406-1.84375 3.816406-2.875 5.972656 15.398437 32.945312 37.632812 83.714844 37.632812 102.253906 0 28.363281-23.671875 50.992188-52.035156 50.992188-4.449219 0-8.785156-.558594-12.933594-1.609376 9.390625 8.746094 22.050782 14.097657 35.828125 14.097657 28.359375 0 52.03125-22.628907 52.03125-50.992188 0-22.574219-32.960937-92.933593-46.414062-120.714843-2.273438-4.695313-8.960938-4.695313-11.234375 0zm0 0" fill="#378900"/><path d="m512 205.410156c0 28.359375-23.671875 50.992188-52.03125 50.992188-28.363281 0-52.035156-22.632813-52.035156-50.992188 0-22.574218 32.960937-92.9375 46.417968-120.714844 2.273438-4.699218 8.957032-4.699218 11.234376 0 13.453124 27.777344 46.414062 98.140626 46.414062 120.714844zm0 0" fill="#6ec030"/><path d="m454.351562 84.695312c-.882812 1.816407-1.84375 3.816407-2.878906 5.972657 15.402344 32.945312 37.632813 83.714843 37.632813 102.253906 0 28.359375-23.671875 50.992187-52.035157 50.992187-4.449218 0-8.785156-.558593-12.929687-1.609374 9.386719 8.746093 22.046875 14.097656 35.824219 14.097656 28.363281 0 52.035156-22.632813 52.035156-50.992188 0-22.574218-32.964844-92.9375-46.417969-120.714844-2.273437-4.699218-8.957031-4.695312-11.230469 0zm0 0" fill="#378900"/><path d="m394.40625 76.367188c0 21.265624-17.238281 38.503906-38.503906 38.503906s-38.503906-17.238282-38.503906-38.503906c0-21.261719 17.238281-38.503907 38.503906-38.503907s38.503906 17.242188 38.503906 38.503907zm0 0" fill="#ffd432"/><path d="m363.796875 38.679688c4.84375 6.4375 7.714844 14.441406 7.714844 23.121093 0 21.265625-17.238281 38.503907-38.503907 38.503907-2.707031 0-5.347656-.28125-7.894531-.8125 7.027344 9.339843 18.203125 15.378906 30.789063 15.378906 21.265625 0 38.503906-17.238282 38.503906-38.503906 0-18.558594-13.132812-34.046876-30.609375-37.6875zm0 0" fill="#f4ac03"/><g fill="#e28540"><path d="m92.4375 211.546875c-1.78125-3.925781-6.40625-5.664063-10.332031-3.878906l-11.863281 5.394531v-11.816406c0-4.308594-3.492188-7.804688-7.804688-7.804688-4.308594 0-7.804688 3.496094-7.804688 7.804688v11.816406l-11.859374-5.394531c-3.925782-1.78125-8.550782-.046875-10.335938 3.878906-1.78125 3.921875-.046875 8.550781 3.878906 10.332031l18.316406 8.328125v154.195313c0 4.308594 3.496094 7.804687 7.804688 7.804687 4.3125 0 7.804688-3.496093 7.804688-7.804687v-154.195313l18.320312-8.328125c3.925781-1.78125 5.660156-6.410156 3.875-10.332031zm0 0"/><path d="m243.332031 127.253906c-1.78125-3.925781-6.40625-5.664062-10.335937-3.878906l-11.859375 5.394531v-11.816406c0-4.308594-3.492188-7.804687-7.804688-7.804687-4.308593 0-7.804687 3.496093-7.804687 7.804687v11.816406l-11.859375-5.394531c-3.925781-1.78125-8.550781-.046875-10.335938 3.878906-1.78125 3.921875-.046875 8.550782 3.878907 10.332032l18.316406 8.328124v93.835938c0 4.3125 3.496094 7.804688 7.804687 7.804688 4.3125 0 7.804688-3.492188 7.804688-7.804688v-93.835938l18.320312-8.328124c3.925781-1.78125 5.660157-6.40625 3.875-10.332032zm0 0"/><path d="m489.96875 208.421875c-1.785156-3.921875-6.410156-5.65625-10.335938-3.875l-11.859374 5.390625v-11.8125c0-4.308594-3.496094-7.804688-7.804688-7.804688-4.3125 0-7.808594 3.492188-7.808594 7.804688v11.8125l-11.859375-5.390625c-3.921875-1.78125-8.550781-.046875-10.332031 3.875-1.785156 3.925781-.050781 8.554687 3.875 10.335937l18.316406 8.328126v168.761718c0 4.3125 3.496094 7.804688 7.808594 7.804688 4.308594 0 7.804688-3.492188 7.804688-7.804688v-168.761718l18.316406-8.328126c3.925781-1.78125 5.660156-6.410156 3.878906-10.335937zm0 0"/></g><path d="m351.097656 229.34375h-190.195312c-4.121094 0-7.847656 2.425781-9.515625 6.195312-10.023438 22.65625-49.546875 104.023438-132.703125 186.230469-6.601563 6.527344-1.949219 17.785157 7.335937 17.785157h459.960938c9.285156 0 13.9375-11.257813 7.335937-17.785157-83.15625-82.207031-122.679687-163.574219-132.703125-186.230469-1.667969-3.769531-5.394531-6.195312-9.515625-6.195312zm0 0" fill="#ffd432"/><path d="m172.226562 266.945312c-7.097656-13.105468-11.984374-23.390624-14.890624-29.867187-1.289063-2.863281-5.347657-2.867187-6.632813-.003906-11.054687 24.609375-50.644531 104.25-132.019531 184.695312-6.601563 6.527344-1.949219 17.785157 7.335937 17.785157h10.402344c71.019531-65.074219 113.929687-132.230469 135.804687-172.609376zm0 0" fill="#f4ac03"/><path d="m224.78125 439.554688c-50.953125-46.683594-70.765625-95.738282-70.765625-95.738282s-19.8125 49.054688-70.761719 95.738282zm0 0" fill="#757574"/><path d="m351.097656 229.34375h-51.152344c18.886719 36.011719 56.953126 98.359375 120.527344 161.210938 6.601563 6.523437 1.945313 17.78125-7.335937 17.78125h-136.996094c9.9375 10.382812 20.550781 20.828124 31.890625 31.222656h177.949219c9.285156 0 13.9375-11.257813 7.335937-17.785156-83.15625-82.210938-122.679687-163.574219-132.703125-186.234376-1.667969-3.769531-5.394531-6.195312-9.515625-6.195312zm0 0" fill="#f4ac03"/><path d="m392.703125 398c-2.289063-9.007812-10.429687-15.679688-20.148437-15.679688-1.101563 0-2.167969.109376-3.21875.273438-6.394532-7.789062-16.097657-12.761719-26.960938-12.761719-10.867188 0-20.566406 4.972657-26.960938 12.761719-1.050781-.164062-2.121093-.273438-3.21875-.273438-9.71875 0-17.859374 6.671876-20.148437 15.679688-10.832031.734375-19.398437 9.726562-19.398437 20.742188 0 11.496093 9.320312 20.8125 20.816406 20.8125h97.820312c11.492188 0 20.8125-9.316407 20.8125-20.8125 0-11.015626-8.566406-20.007813-19.394531-20.742188zm0 0" fill="#6ec030"/><path d="m392.703125 398c-2.289063-9.007812-10.429687-15.679688-20.148437-15.679688-1.101563 0-2.167969.109376-3.21875.273438-6.394532-7.789062-16.097657-12.761719-26.960938-12.761719-6.246094 0-12.101562 1.648438-17.171875 4.527344 3.75 2.128906 7.070313 4.921875 9.789063 8.234375 1.050781-.164062 2.121093-.273438 3.21875-.273438 9.71875 0 17.859374 6.671876 20.148437 15.679688 10.832031.734375 19.398437 9.726562 19.398437 20.742188 0 11.496093-9.320312 20.8125-20.816406 20.8125h34.34375c11.492188 0 20.8125-9.316407 20.8125-20.8125 0-11.015626-8.566406-20.007813-19.394531-20.742188zm0 0" fill="#378900"/></svg>