<?xml version="1.0"?>
<svg xmlns="http://www.w3.org/2000/svg" viewBox="0 0 64 64" width="512" height="512"><g id="Flat"><circle cx="32" cy="32" r="27" style="fill:#f5cf68"/><polygon points="17 22 18.652 27 24 27 19.674 30.229 21.326 35.315 17 32.172 12.674 35.315 14.326 30.229 10 27 15.348 27 17 22" style="fill:#f80"/><polygon points="47 22 48.652 27 54 27 49.674 30.229 51.326 35.315 47 32.172 42.674 35.315 44.326 30.229 40 27 45.348 27 47 22" style="fill:#f80"/><polygon points="32 12 34.597 20.002 43 20.002 36.202 24.931 38.798 32.923 32 27.984 25.202 32.923 27.798 24.931 21 20.002 29.403 20.002 32 12" style="fill:#f80"/><polygon points="5 45 7.786 48 5 51 18 51 18 45 5 45" style="fill:#02998a"/><polygon points="59 45 56.214 48 59 51 46 51 46 45 59 45" style="fill:#02998a"/><rect x="16" y="42" width="32" height="7" style="fill:#83beb9"/></g></svg>
