<svg height="512pt" viewBox="-8 0 511 512" width="512pt" xmlns="http://www.w3.org/2000/svg"><path d="m494.894531 264.800781c0 136.523438-110.671875 247.199219-247.195312 247.199219-136.523438 0-247.199219-110.675781-247.199219-247.199219 0-136.523437 110.675781-247.195312 247.199219-247.195312 136.523437 0 247.195312 110.671875 247.195312 247.195312zm0 0" fill="#2d8ae8"/><path d="m35.9375 262.1875h19.855469c7.359375 0 13.324219 5.964844 13.324219 13.324219 0 7.355469-5.964844 13.324219-13.324219 13.324219h-19.855469c-7.355469 0-13.320312-5.96875-13.320312-13.324219 0-7.359375 5.964843-13.324219 13.320312-13.324219zm0 0" fill="#6cafff"/><path d="m171.921875 155.230469h-73.304687c-7.355469 0-13.324219-5.964844-13.324219-13.320313 0-7.300781 5.902343-13.320312 13.324219-13.320312h16.5c7.355468 0 13.320312-5.96875 13.320312-13.324219 0-7.371094-5.988281-13.332031-13.320312-13.332031h-53.363282c-32 36.503906-53.417968 82.507812-59.480468 133.234375h117.390624c7.359376 0 13.324219-5.96875 13.324219-13.324219 0-7.398438-6.03125-13.320312-13.324219-13.320312h-28.160156c-7.355468 0-13.320312-5.96875-13.320312-13.324219 0-7.359375 5.96875-13.320313 13.320312-13.320313h80.417969c7.355469 0 13.324219-5.96875 13.324219-13.324218 0-7.402344-6.03125-13.324219-13.324219-13.324219zm0 0" fill="#6cafff"/><path d="m448.226562 120.246094h-81.539062c-7.355469 0-13.320312 5.96875-13.320312 13.324218 0 7.402344 6.03125 13.324219 13.320312 13.324219h45.308594c7.355468 0 13.320312 5.964844 13.320312 13.320313 0 7.300781-5.902344 13.320312-13.324218 13.320312h-14.5c-7.355469 0-13.320313 5.96875-13.320313 13.324219 0 7.371094 5.988281 13.332031 13.324219 13.332031h88.851562c-7.867187-29.132812-20.921875-56.128906-38.121094-79.945312zm0 0" fill="#6cafff"/><path d="m16.84375 353.332031c35.609375 92.792969 125.53125 158.667969 230.855469 158.667969 105.320312 0 195.246093-65.875 230.851562-158.667969zm0 0" fill="#a34c3e"/><path d="m303.707031 353.332031h-286.863281c35.609375 92.792969 125.53125 158.667969 230.855469 158.667969 12.003906 0 23.8125-.867188 35.359375-2.519531-85.6875-19.480469-76.226563-156.148438 20.648437-156.148438zm0 0" fill="#7f383f"/><path d="m445.949219 412.484375v-165.753906c0-7.460938-6.105469-13.5625-13.566407-13.5625h-54.546874c-7.460938 0-13.566407 6.101562-13.566407 13.5625v219.203125c0 5.5 3.324219 10.253906 8.054688 12.378906 28.746093-16.816406 53.796875-39.257812 73.625-65.828125zm0 0" fill="#00557f"/><path d="m117.5625 233.167969h-54.550781c-7.457031 0-13.5625 6.101562-13.5625 13.5625v165.753906c19.828125 26.570313 44.875 49.011719 73.621093 65.828125 4.734376-2.121094 8.058594-6.875 8.058594-12.375v-219.207031c-.003906-7.460938-6.105468-13.5625-13.566406-13.5625zm0 0" fill="#00557f"/><path d="m432.382812 289.074219h-54.546874c-7.460938 0-13.566407-6.101563-13.566407-13.5625v190.421875c0 5.5 3.324219 10.253906 8.054688 12.378906 28.746093-16.816406 53.796875-39.257812 73.625-65.828125v-136.972656c0 7.460937-6.105469 13.5625-13.566407 13.5625zm0 0" fill="#014a72"/><path d="m117.5625 289.074219h-54.550781c-7.457031 0-13.5625-6.101563-13.5625-13.5625v136.972656c19.828125 26.570313 44.875 49.011719 73.621093 65.828125 4.734376-2.121094 8.058594-6.875 8.058594-12.375v-190.425781c-.003906 7.460937-6.105468 13.5625-13.566406 13.5625zm0 0" fill="#014a72"/><path d="m425.949219 436.058594v-100.765625c0-8.277344-6.710938-14.988281-14.988281-14.988281h-31.703126c-8.277343 0-14.988281 6.710937-14.988281 14.988281v129.21875c0 5.964843 3.496094 11.101562 8.542969 13.515625 19.601562-11.527344 37.476562-25.671875 53.136719-41.96875zm0 0" fill="#0b658d"/><path d="m116.136719 320.304688h-31.699219c-8.277344 0-14.988281 6.710937-14.988281 14.988281v100.765625c15.660156 16.296875 33.535156 30.441406 53.136719 41.96875 5.046874-2.414063 8.539062-7.550782 8.539062-13.515625v-129.21875c0-8.277344-6.710938-14.988281-14.988281-14.988281zm0 0" fill="#0b658d"/><path d="m187.28125 194.5.304688-.917969c2.007812-6.019531 7.644531-10.082031 13.988281-10.082031h92.246093c6.347657 0 11.980469 4.0625 13.988282 10.082031l.304687.917969h28.773438l-12.9375-142.960938h-152.5l-12.941407 142.960938zm0 0" fill="#a7d5fc"/><path d="m209.949219 51.539062h-38.5l-12.941407 142.960938h28.773438l.304688-.917969c1.617187-4.84375 5.582031-8.417969 10.375-9.628906zm0 0" fill="#6cafff"/><path d="m311.371094 28.539062v-9.773437c0-10.320313-8.445313-18.765625-18.769532-18.765625h-89.808593c-10.320313 0-18.765625 8.445312-18.765625 18.765625v9.773437zm0 0" fill="#edaa24"/><path d="m230.261719 0h-27.46875c-10.320313 0-18.765625 8.445312-18.765625 18.765625v9.773437h27.46875v-9.773437c0-10.320313 8.445312-18.765625 18.765625-18.765625zm0 0" fill="#ef9218"/><path d="m158.507812 194.5h28.773438l.304688-.917969c2.007812-6.019531 7.644531-10.082031 13.988281-10.082031h92.246093c6.347657 0 11.980469 4.0625 13.988282 10.082031l.304687.917969h28.773438l-2.53125-27.996094h-173.3125zm0 0" fill="#16759b"/><path d="m199.375 166.503906h-38.332031l-2.535157 27.996094h28.773438l.304688-.917969c1.597656-4.785156 5.488281-8.324219 10.203124-9.578125zm0 0" fill="#0b658d"/><path d="m162.863281 373.082031h169.667969c.113281 0 .222656.011719.332031.019531v-107.519531c0-7.929687-6.484375-14.417969-14.414062-14.417969h-141.5c-7.929688 0-14.417969 6.488282-14.417969 14.417969v107.519531c.113281-.003906.222656-.019531.332031-.019531zm0 0" fill="#00557f"/><path d="m204.53125 265.582031c0-7.929687 6.488281-14.417969 14.417969-14.417969h-42c-7.929688 0-14.417969 6.488282-14.417969 14.417969v107.519531c.113281-.007812.222656-.019531.332031-.019531h41.667969zm0 0" fill="#014a72"/><path d="m140.449219 166.503906c.007812 0 .019531-.003906.027343-.003906h26.941407c.011719 0 .019531.003906.03125.003906v-52.183594c0-27.746093-22.578125-50.320312-50.324219-50.320312-7.453125 0-13.5 6.042969-13.5 13.5s6.046875 13.5 13.5 13.5c12.859375 0 23.324219 10.460938 23.324219 23.320312zm0 0" fill="#e8eeef"/><path d="m170.0625 260.164062.007812.003907c-2.199218 2.53125-3.539062 5.820312-3.539062 9.417969v2.25h-24.730469c-6.785156 0-13.070312 2.234374-18.164062 6v-64.570313c0-11.46875 9.296875-20.765625 20.765625-20.765625h46.878906zm0 0" fill="#ed7a1b"/><path d="m325.335938 260.164062-.007813.003907c2.195313 2.53125 3.535156 5.820312 3.535156 9.417969v2.25h24.730469c6.785156 0 13.070312 2.234374 18.164062 6v-64.570313c0-11.46875-9.296874-20.765625-20.765624-20.765625h-46.878907zm0 0" fill="#ed7a1b"/><path d="m144.402344 192.5h27.046875v-21.972656c0-2.222656-1.804688-4.027344-4.03125-4.027344h-26.941407c-2.222656 0-4.027343 1.804688-4.027343 4.027344v23.558594c2.449219-1.019532 5.136719-1.585938 7.953125-1.585938zm0 0" fill="#00557f"/><path d="m131.125 386h233.144531v39.5h-233.144531zm0 0" fill="#c8cdce"/><path d="m131.125 386h72.738281v39.5h-72.738281zm0 0" fill="#bdc0c1"/><path d="m190.921875 353.335938c-4.144531 0-7.5-3.359376-7.5-7.5v-44.667969c0-4.144531 3.355469-7.5 7.5-7.5 4.140625 0 7.5 3.355469 7.5 7.5v44.667969c0 4.140624-3.359375 7.5-7.5 7.5zm0 0" fill="#00557f"/><g fill="#0b658d"><path d="m247.699219 353.335938c-4.144531 0-7.5-3.359376-7.5-7.5v-44.667969c0-4.144531 3.355469-7.5 7.5-7.5 4.140625 0 7.5 3.355469 7.5 7.5v44.667969c0 4.140624-3.359375 7.5-7.5 7.5zm0 0"/><path d="m219.308594 353.335938c-4.140625 0-7.5-3.359376-7.5-7.5v-44.667969c0-4.144531 3.359375-7.5 7.5-7.5s7.5 3.355469 7.5 7.5v44.667969c0 4.140624-3.359375 7.5-7.5 7.5zm0 0"/><path d="m304.476562 353.335938c-4.140624 0-7.5-3.359376-7.5-7.5v-44.667969c0-4.144531 3.359376-7.5 7.5-7.5 4.140626 0 7.5 3.355469 7.5 7.5v44.667969c0 4.140624-3.359374 7.5-7.5 7.5zm0 0"/><path d="m276.085938 353.335938c-4.140626 0-7.5-3.359376-7.5-7.5v-44.667969c0-4.144531 3.359374-7.5 7.5-7.5 4.144531 0 7.5 3.355469 7.5 7.5v44.667969c0 4.140624-3.355469 7.5-7.5 7.5zm0 0"/></g><path d="m382.320312 372.5h-48.289062c.890625 1.28125 1.417969 2.832031 1.417969 4.5v18c0 1.667969-.527344 3.21875-1.417969 4.5h48.289062c3.972657 0 7.191407-3.21875 7.191407-7.1875v-12.625c0-3.96875-3.21875-7.1875-7.191407-7.1875zm0 0" fill="#c8cdce"/><path d="m159.949219 395v-18c0-1.667969.527343-3.21875 1.417969-4.5h-48.292969c-3.96875 0-7.1875 3.21875-7.1875 7.1875v12.625c0 3.96875 3.21875 7.1875 7.1875 7.1875h48.292969c-.890626-1.28125-1.417969-2.832031-1.417969-4.5zm0 0" fill="#bdc0c1"/><path d="m272.636719 166.503906c0-.402344-.023438-.804687-.089844-1.210937-.152344-.9375-.230469-1.875-.230469-2.792969 0-9.464844 7.703125-17.164062 17.167969-17.164062s17.167969 7.699218 17.167969 17.164062c0 .917969-.078125 1.855469-.230469 2.792969-.066406.40625-.089844.808593-.089844 1.210937h15.042969c.167969-1.335937.277344-2.679687.277344-4.003906 0-17.734375-14.429688-32.164062-32.167969-32.164062-17.734375 0-32.164063 14.429687-32.164063 32.164062 0 1.328125.109376 2.667969.277344 4.003906zm0 0" fill="#0b658d"/><path d="m176.949219 251.167969h141.5c4.332031 0 8.226562 1.945312 10.875 5l.011719-.003907-21.527344-64.582031c-2.007813-6.019531-7.644532-10.082031-13.988282-10.082031h-92.246093c-6.34375 0-11.980469 4.0625-13.988281 10.082031l-21.523438 64.582031.007812.003907c2.648438-3.054688 6.542969-5 10.878907-5zm0 0" fill="#f6c952"/><path d="m222.1875 195.160156c.605469-5.925781 4.175781-11.003906 9.289062-13.660156h-29.898437c-6.347656 0-11.984375 4.0625-13.988281 10.082031l-21.527344 64.582031.007812.003907c2.648438-3.054688 6.542969-5.003907 10.878907-5.003907h39.515625zm0 0" fill="#edaa24"/><path d="m318.449219 251.167969h-141.5c-7.929688 0-14.417969 6.488281-14.417969 14.417969v12.914062h170.332031v-12.917969c0-7.929687-6.484375-14.414062-14.414062-14.414062zm0 0" fill="#e8eeef"/><path d="m218.949219 251.167969h-42c-7.929688 0-14.417969 6.488281-14.417969 14.417969v12.914062h42v-12.917969c0-7.929687 6.488281-14.414062 14.417969-14.414062zm0 0" fill="#c8cdce"/><path d="m332.863281 369.101562c2.546875.105469 4.792969 1.425782 6.167969 3.398438h43.289062c.675782 0 1.328126.101562 1.949219.273438v-74.261719c0-16.875-13.804687-30.675781-30.675781-30.675781h-20.730469zm0 0" fill="#edaa24"/><path d="m113.074219 372.5h43.292969c1.371093-1.972656 3.617187-3.292969 6.164062-3.398438v-101.269531h-20.730469c-16.871093 0-30.675781 13.804688-30.675781 30.675781v74.265626c.621094-.171876 1.273438-.273438 1.949219-.273438zm0 0" fill="#edaa24"/><path d="m332.53125 369.082031h-169.667969c-4.351562 0-7.914062 3.5625-7.914062 7.917969v18c0 4.355469 3.5625 7.917969 7.914062 7.917969h169.667969c4.355469 0 7.917969-3.5625 7.917969-7.917969v-18c0-4.355469-3.5625-7.917969-7.917969-7.917969zm0 0" fill="#e8eeef"/><path d="m195.949219 395v-18c0-4.355469 3.5625-7.917969 7.914062-7.917969h-41c-4.351562 0-7.914062 3.5625-7.914062 7.917969v18c0 4.355469 3.5625 7.917969 7.914062 7.917969h41c-4.351562 0-7.914062-3.5625-7.914062-7.917969zm0 0" fill="#c8cdce"/><path d="m323.398438 25.539062h-151.402344c-7.179688 0-13 5.820313-13 13 0 7.179688 5.820312 13 13 13h151.402344c7.179687 0 13-5.820312 13-13 0-7.179687-5.820313-13-13-13zm0 0" fill="#e8eeef"/><path d="m198.496094 38.539062c0-7.179687 5.820312-13 13-13h-39.5c-7.179688 0-13 5.820313-13 13 0 7.179688 5.820312 13 13 13h39.5c-7.179688 0-13-5.820312-13-13zm0 0" fill="#c8cdce"/><path d="m153.949219 138.167969c-5.902344 0-11-3.382813-13.5-8.304688v36.640625c.007812 0 .019531-.003906.027343-.003906h26.941407c.011719 0 .019531.003906.03125.003906v-36.640625c-2.503907 4.921875-7.601563 8.304688-13.5 8.304688zm0 0" fill="#c8cdce"/><path d="m302.488281 82.300781c-3.632812 0-6.601562-2.953125-6.601562-6.597656 0-3.1875 2.28125-5.902344 5.308593-6.46875 4.09375-.839844 7.890626 2.351563 7.890626 6.46875.003906 3.628906-2.964844 6.597656-6.597657 6.597656zm0 0" fill="#d6ecfc"/><path d="m284.6875 103.496094c-6.164062 0-11.199219-5.015625-11.199219-11.203125 0-5.410157 3.867188-10.011719 9.003907-10.976563 6.949218-1.421875 13.394531 3.992188 13.394531 10.976563.003906 6.160156-5.03125 11.203125-11.199219 11.203125zm0 0" fill="#d6ecfc"/><path d="m295.890625 142.441406c0-4.515625 3.660156-8.171875 8.171875-8.171875.308594 0 .613281.019531.914062.050781-4.597656-2.539062-9.878906-3.984374-15.492187-3.984374-17.738281 0-32.167969 14.429687-32.167969 32.164062 0 1.328125.109375 2.667969.277344 4.003906h15.042969c0-.402344-.023438-.804687-.089844-1.210937-.152344-.9375-.230469-1.875-.230469-2.792969 0-9.464844 7.703125-17.164062 17.167969-17.164062 2.910156 0 5.648437.730468 8.054687 2.015624-1.03125-1.371093-1.648437-3.066406-1.648437-4.910156zm0 0" fill="#00557f"/><path d="m137.824219 292.066406c10.632812 0 19.890625 5.878906 24.707031 14.566406v-38.800781h-20.730469c-16.871093 0-30.675781 13.804688-30.675781 30.675781v12.597657c3.816406-11.078125 14.324219-19.039063 26.699219-19.039063zm0 0" fill="#ef9218"/><path d="m357.53125 292.066406c12.417969 0 22.957031 8.019532 26.738281 19.160156v-12.714843c0-16.875-13.804687-30.675781-30.675781-30.675781h-20.730469v38.726562c4.828125-8.648438 14.0625-14.496094 24.667969-14.496094zm0 0" fill="#ef9218"/></svg>